<svg aria-hidden="true" style="position: absolute; width: 0; height: 0; overflow: hidden;" version="1.1" xmlns="http://www.w3.org/2000/svg" xmlns:xlink="http://www.w3.org/1999/xlink">
<defs>
<symbol id="icon-ETH" viewBox="0 0 32 32">
<path fill="#8a92b2" style="fill: var(--color1, #8a92b2)" d="M15.997 1.345l-8.995 14.927 8.995-4.088v-10.838z"></path>
<path fill="#62688f" style="fill: var(--color2, #62688f)" d="M15.997 12.183l-8.995 4.088 8.995 5.318v-9.407zM24.993 16.272l-8.997-14.927v10.838l8.997 4.088z"></path>
<path fill="#454a75" style="fill: var(--color3, #454a75)" d="M15.997 21.59l8.997-5.318-8.997-4.088v9.407z"></path>
<path fill="#8a92b2" style="fill: var(--color1, #8a92b2)" d="M7.002 17.978l8.995 12.677v-7.362l-8.995-5.315z"></path>
<path fill="#62688f" style="fill: var(--color2, #62688f)" d="M15.997 23.293v7.362l9.002-12.677-9.002 5.315z"></path>
</symbol>
<symbol id="icon-activity" viewBox="0 0 32 32">
<path d="M15.933 10.6l-1.885 1.885-3.381-3.381v17.563h-2.667v-17.563l-3.38 3.381-1.887-1.885 6.6-6.6 6.6 6.6zM29.267 21.4l-6.6 6.6-6.6-6.6 1.885-1.885 3.383 3.381-0.001-17.563h2.667v17.563l3.381-3.381 1.885 1.885z"></path>
</symbol>
</defs>
</svg>